<svg width="114" height="114" viewBox="0 0 114 114" fill="none" xmlns="http://www.w3.org/2000/svg">
<rect x="1" y="1" width="112" height="112" rx="56" fill="url(#paint0_linear_287_4289)"/>
<rect x="1" y="1" width="112" height="112" rx="56" stroke="url(#paint1_linear_287_4289)" stroke-width="2"/>
<rect x="15" y="15" width="84" height="84" rx="42" fill="url(#paint2_linear_287_4289)"/>
<rect x="15" y="15" width="84" height="84" rx="42" stroke="url(#paint3_linear_287_4289)" stroke-width="2"/>
<rect x="31" y="31" width="52" height="52" rx="26" fill="url(#paint4_linear_287_4289)"/>
<rect x="31" y="31" width="52" height="52" rx="26" stroke="url(#paint5_linear_287_4289)" stroke-width="2"/>
<path fill-rule="evenodd" clip-rule="evenodd" d="M57 45.625C57.4487 45.625 57.8125 45.9888 57.8125 46.4375V48.875C57.8125 49.3237 57.4487 49.6875 57 49.6875C56.5513 49.6875 56.1875 49.3237 56.1875 48.875V46.4375C56.1875 45.9888 56.5513 45.625 57 45.625ZM50.1057 48.4807C50.423 48.1634 50.9375 48.1634 51.2548 48.4807L52.9783 50.2043C53.2956 50.5216 53.2956 51.036 52.9783 51.3533C52.661 51.6706 52.1466 51.6706 51.8293 51.3533L50.1057 49.6298C49.7884 49.3125 49.7884 48.798 50.1057 48.4807ZM63.8943 48.4807C64.2116 48.798 64.2116 49.3125 63.8943 49.6298L62.1707 51.3533C61.8534 51.6706 61.339 51.6706 61.0217 51.3533C60.7044 51.036 60.7044 50.5216 61.0217 50.2043L62.7452 48.4807C63.0625 48.1634 63.577 48.1634 63.8943 48.4807ZM56.5108 53.3511C56.8486 53.2606 57.2064 53.3964 57.3991 53.6882L63.0618 62.2649C63.2429 62.5391 63.2409 62.8954 63.0569 63.1676C62.8728 63.4399 62.5429 63.5744 62.2209 63.5085L59.9489 63.0436L61.0807 67.2675C61.1968 67.7009 60.9396 68.1465 60.5061 68.2626C60.0727 68.3787 59.6272 68.1215 59.511 67.6881L58.3793 63.4643L56.6444 65.0028C56.3985 65.2208 56.0455 65.2693 55.7499 65.1255C55.4544 64.9818 55.2745 64.6742 55.2942 64.3462L55.91 54.0872C55.931 53.7381 56.1729 53.4416 56.5108 53.3511ZM47.25 55.375C47.25 54.9263 47.6138 54.5625 48.0625 54.5625H50.5C50.9487 54.5625 51.3125 54.9263 51.3125 55.375C51.3125 55.8237 50.9487 56.1875 50.5 56.1875H48.0625C47.6138 56.1875 47.25 55.8237 47.25 55.375ZM62.6875 55.375C62.6875 54.9263 63.0513 54.5625 63.5 54.5625H65.9375C66.3862 54.5625 66.75 54.9263 66.75 55.375C66.75 55.8237 66.3862 56.1875 65.9375 56.1875H63.5C63.0513 56.1875 62.6875 55.8237 62.6875 55.375ZM52.9783 59.3967C53.2956 59.714 53.2956 60.2284 52.9783 60.5457L51.2548 62.2693C50.9375 62.5866 50.423 62.5866 50.1057 62.2693C49.7884 61.952 49.7884 61.4375 50.1057 61.1202L51.8293 59.3967C52.1466 59.0794 52.661 59.0794 52.9783 59.3967Z" fill="white"/>
<defs>
<linearGradient id="paint0_linear_287_4289" x1="57" y1="0" x2="57" y2="114" gradientUnits="userSpaceOnUse">
<stop stop-color="#1A1A1A"/>
<stop offset="0.565952" stop-color="#1A1A1A" stop-opacity="0"/>
</linearGradient>
<linearGradient id="paint1_linear_287_4289" x1="57" y1="0" x2="57" y2="114" gradientUnits="userSpaceOnUse">
<stop stop-color="#333333"/>
<stop offset="0.745602" stop-color="#333333" stop-opacity="0"/>
</linearGradient>
<linearGradient id="paint2_linear_287_4289" x1="57" y1="14" x2="57" y2="100" gradientUnits="userSpaceOnUse">
<stop stop-color="#1A1A1A"/>
<stop offset="0.658009" stop-color="#1A1A1A" stop-opacity="0"/>
</linearGradient>
<linearGradient id="paint3_linear_287_4289" x1="57" y1="14" x2="57" y2="100" gradientUnits="userSpaceOnUse">
<stop stop-color="#333333"/>
<stop offset="0.82384" stop-color="#333333" stop-opacity="0"/>
</linearGradient>
<linearGradient id="paint4_linear_287_4289" x1="57" y1="32" x2="57" y2="82" gradientUnits="userSpaceOnUse">
<stop stop-color="#1A1A1A"/>
<stop offset="1" stop-color="#1A1A1A" stop-opacity="0"/>
</linearGradient>
<linearGradient id="paint5_linear_287_4289" x1="57" y1="32" x2="57" y2="82" gradientUnits="userSpaceOnUse">
<stop stop-color="#333333"/>
<stop offset="0.84964" stop-color="#333333" stop-opacity="0"/>
</linearGradient>
</defs>
</svg>
