<svg width="27" height="26" viewBox="0 0 27 26" fill="none" xmlns="http://www.w3.org/2000/svg">
<path d="M4.83337 0.25C2.48616 0.25 0.583374 2.15279 0.583374 4.5V7.6875C0.583374 10.0347 2.48616 11.9375 4.83337 11.9375H8.02087C10.3681 11.9375 12.2709 10.0347 12.2709 7.6875V4.5C12.2709 2.15279 10.3681 0.25 8.02087 0.25H4.83337Z" fill="white"/>
<path d="M18.6459 0.25C16.2987 0.25 14.3959 2.15279 14.3959 4.5V7.6875C14.3959 10.0347 16.2987 11.9375 18.6459 11.9375H21.8334C24.1806 11.9375 26.0834 10.0347 26.0834 7.6875V4.5C26.0834 2.15279 24.1806 0.25 21.8334 0.25H18.6459Z" fill="white"/>
<path d="M4.83337 14.0625C2.48616 14.0625 0.583374 15.9653 0.583374 18.3125V21.5C0.583374 23.8472 2.48616 25.75 4.83337 25.75H8.02087C10.3681 25.75 12.2709 23.8472 12.2709 21.5V18.3125C12.2709 15.9653 10.3681 14.0625 8.02087 14.0625H4.83337Z" fill="white"/>
<path d="M21.3021 15.125C21.3021 14.5382 20.8264 14.0625 20.2396 14.0625C19.6528 14.0625 19.1771 14.5382 19.1771 15.125V18.8438H15.4584C14.8716 18.8438 14.3959 19.3194 14.3959 19.9062C14.3959 20.4931 14.8716 20.9688 15.4584 20.9688H19.1771V24.6875C19.1771 25.2743 19.6528 25.75 20.2396 25.75C20.8264 25.75 21.3021 25.2743 21.3021 24.6875V20.9688H25.0209C25.6077 20.9688 26.0834 20.4931 26.0834 19.9062C26.0834 19.3194 25.6077 18.8438 25.0209 18.8438H21.3021V15.125Z" fill="white"/>
</svg>
