<svg width="27" height="30" viewBox="0 0 27 30" fill="none" xmlns="http://www.w3.org/2000/svg">
<path fill-rule="evenodd" clip-rule="evenodd" d="M13.3334 0.125C13.9202 0.125 14.3959 0.600697 14.3959 1.1875V4.375C14.3959 4.9618 13.9202 5.4375 13.3334 5.4375C12.7466 5.4375 12.2709 4.9618 12.2709 4.375V1.1875C12.2709 0.600697 12.7466 0.125 13.3334 0.125ZM4.31776 3.85939C4.7327 3.44446 5.40543 3.44446 5.82037 3.85939L8.07427 6.11329C8.4892 6.52822 8.4892 7.20096 8.07427 7.61589C7.65934 8.03082 6.9866 8.03082 6.57167 7.61589L4.31776 5.36199C3.90283 4.94706 3.90283 4.27432 4.31776 3.85939ZM22.349 3.85939C22.7639 4.27432 22.7639 4.94706 22.349 5.36199L20.0951 7.61589C19.6802 8.03083 19.0074 8.03083 18.5925 7.61589C18.1775 7.20096 18.1775 6.52822 18.5925 6.11329L20.8464 3.85939C21.2613 3.44446 21.9341 3.44446 22.349 3.85939ZM12.6936 10.2284C13.1353 10.11 13.6033 10.2876 13.8553 10.6692L21.2604 21.8848C21.4972 22.2434 21.4946 22.7094 21.2539 23.0654C21.0132 23.4214 20.5817 23.5973 20.1607 23.5112L17.1896 22.9032L18.6696 28.4267C18.8215 28.9935 18.4851 29.5761 17.9183 29.728C17.3515 29.8799 16.7689 29.5435 16.617 28.9767L15.137 23.4533L12.8683 25.4651C12.5468 25.7503 12.0851 25.8136 11.6987 25.6257C11.3122 25.4378 11.077 25.0355 11.1028 24.6065L11.908 11.191C11.9354 10.7345 12.2518 10.3467 12.6936 10.2284ZM0.583374 12.875C0.583374 12.2882 1.05907 11.8125 1.64587 11.8125H4.83337C5.42018 11.8125 5.89587 12.2882 5.89587 12.875C5.89587 13.4618 5.42018 13.9375 4.83337 13.9375H1.64587C1.05907 13.9375 0.583374 13.4618 0.583374 12.875ZM20.7709 12.875C20.7709 12.2882 21.2466 11.8125 21.8334 11.8125H25.0209C25.6077 11.8125 26.0834 12.2882 26.0834 12.875C26.0834 13.4618 25.6077 13.9375 25.0209 13.9375H21.8334C21.2466 13.9375 20.7709 13.4618 20.7709 12.875ZM8.07427 18.1341C8.4892 18.549 8.4892 19.2218 8.07427 19.6367L5.82036 21.8906C5.40543 22.3055 4.73269 22.3055 4.31776 21.8906C3.90283 21.4757 3.90283 20.8029 4.31776 20.388L6.57166 18.1341C6.9866 17.7192 7.65933 17.7192 8.07427 18.1341Z" fill="white"/>
</svg>
