<svg width="17" height="30" viewBox="0 0 17 30" fill="none" xmlns="http://www.w3.org/2000/svg">
<path d="M0.943476 15C0.943476 11.212 0.934304 7.41489 0.943476 3.62692C0.943476 2.06771 1.73225 0.930402 3.1172 0.480982C3.44739 0.37092 3.80509 0.325061 4.15362 0.325061C7.35459 0.315889 10.5464 0.315889 13.7382 0.325061C15.6001 0.334233 16.9575 1.68249 16.9575 3.5352C16.9667 11.1753 16.9667 18.8155 16.9575 26.4648C16.9575 28.3175 15.6001 29.6749 13.7474 29.6749C10.5831 29.6841 7.41879 29.6841 4.25451 29.6749C2.27339 29.6749 0.952648 28.3725 0.952648 26.3731C0.934304 22.5759 0.943476 18.788 0.943476 15ZM8.95966 2.98489C8.33598 2.98489 7.71229 2.98489 7.08861 2.98489C6.59333 2.99407 6.31817 3.22336 6.309 3.62692C6.29983 4.03965 6.55664 4.32398 7.03358 4.32398C8.31763 4.34233 9.59252 4.34233 10.8766 4.32398C11.3352 4.31481 11.647 4.00297 11.6287 3.62692C11.6103 3.2417 11.3077 2.98489 10.8399 2.98489C10.207 2.98489 9.58335 2.98489 8.95966 2.98489ZM8.95966 24.3461C8.20757 24.3461 7.6114 24.9331 7.62057 25.676C7.62975 26.4098 8.24426 27.0059 8.97801 26.9968C9.69341 26.9876 10.2712 26.4098 10.2804 25.6852C10.2804 24.9239 9.71175 24.3553 8.95966 24.3461Z" fill="white"/>
</svg>
