<svg width="24" height="32" viewBox="0 0 24 32" fill="none" xmlns="http://www.w3.org/2000/svg">
<path d="M12 0.0625C5.5452 0.0625 0.312531 5.29517 0.312531 11.75C0.312531 16.0719 2.65897 19.8446 6.14234 21.8656C7.11341 22.4291 7.72149 23.2936 7.74901 24.1636C7.76419 24.6435 8.09933 25.0536 8.5666 25.164C9.06439 25.2817 9.57165 25.3743 10.0869 25.4405C10.5454 25.4994 10.9378 25.1322 10.9378 24.67V18.0668C10.4855 18.0168 10.0422 17.9352 9.61045 17.824C9.04217 17.6778 8.70006 17.0985 8.84632 16.5302C8.99259 15.9619 9.57184 15.6198 10.1401 15.7661C10.7334 15.9188 11.3565 16.0003 12.0003 16.0003C12.644 16.0003 13.2671 15.9188 13.8605 15.7661C14.4287 15.6198 15.008 15.9619 15.1543 16.5302C15.3005 17.0985 14.9584 17.6778 14.3901 17.824C13.9583 17.9352 13.5151 18.0168 13.0628 18.0668V24.6699C13.0628 25.1321 13.4552 25.4994 13.9137 25.4404C14.4288 25.3742 14.9358 25.2817 15.4335 25.164C15.9007 25.0536 16.2359 24.6435 16.2511 24.1636C16.2786 23.2936 16.8867 22.4291 17.8577 21.8656C21.3411 19.8446 23.6875 16.0719 23.6875 11.75C23.6875 5.29517 18.4549 0.0625 12 0.0625Z" fill="white"/>
<path fill-rule="evenodd" clip-rule="evenodd" d="M7.76865 27.1912C7.87801 26.6147 8.43403 26.2359 9.01055 26.3453C9.97809 26.5288 10.9773 26.625 12 26.625C13.0227 26.625 14.022 26.5288 14.9895 26.3453C15.566 26.2359 16.1221 26.6147 16.2314 27.1912C16.3408 27.7677 15.9621 28.3237 15.3856 28.4331C14.2881 28.6413 13.1563 28.75 12 28.75C10.8438 28.75 9.71195 28.6413 8.61451 28.4331C8.03799 28.3237 7.65928 27.7677 7.76865 27.1912Z" fill="white"/>
<path fill-rule="evenodd" clip-rule="evenodd" d="M8.8183 30.654C8.87935 30.0703 9.40196 29.6467 9.98558 29.7078C10.6473 29.777 11.3193 29.8125 12 29.8125C12.6807 29.8125 13.3528 29.777 14.0145 29.7078C14.5981 29.6467 15.1207 30.0703 15.1818 30.654C15.2428 31.2376 14.8192 31.7602 14.2356 31.8212C13.5006 31.8981 12.7547 31.9375 12 31.9375C11.2453 31.9375 10.4995 31.8981 9.76448 31.8212C9.18087 31.7602 8.75724 31.2376 8.8183 30.654Z" fill="white"/>
</svg>
