<svg width="26" height="30" viewBox="0 0 26 30" fill="none" xmlns="http://www.w3.org/2000/svg">
<path fill-rule="evenodd" clip-rule="evenodd" d="M16.7049 0.259479C17.1317 0.497397 17.3411 0.995685 17.2126 1.46706L14.3911 11.8125H24.6875C25.1106 11.8125 25.4934 12.0635 25.662 12.4515C25.8306 12.8396 25.7529 13.2907 25.4643 13.6L10.5893 29.5375C10.2559 29.8947 9.7219 29.9784 9.29514 29.7405C8.86839 29.5026 8.6589 29.0043 8.78746 28.5329L11.6089 18.1875H1.31252C0.889439 18.1875 0.506674 17.9365 0.338054 17.5485C0.169435 17.1604 0.247099 16.7093 0.535777 16.4L15.4108 0.462537C15.7442 0.105348 16.2782 0.02156 16.7049 0.259479Z" fill="white"/>
</svg>
